<svg width="109" height="109" viewBox="0 0 109 109" fill="none" xmlns="http://www.w3.org/2000/svg">
<path d="M20.3497 69.3068V21.5973C20.3497 20.6297 21.1297 19.8452 22.0917 19.8452H54.2434L51.4842 17.6779C50.726 17.0822 50.5912 15.9813 51.1833 15.2187C51.7758 14.4563 52.8701 14.3205 53.6283 14.916L60.3763 20.2162C60.799 20.5484 61.0461 21.0579 61.0461 21.5973C61.0461 22.1367 60.799 22.6461 60.3763 22.9781L53.6283 28.2785C53.31 28.5289 52.9324 28.6498 52.5575 28.6498C52.0394 28.6498 51.5269 28.4185 51.1833 27.9761C50.591 27.2135 50.7256 26.1123 51.484 25.5169L54.2434 23.3493H23.8336V69.307C23.8336 70.2746 23.0536 71.0591 22.0917 71.0591C21.1297 71.0591 20.3497 70.2744 20.3497 69.3068ZM87.5453 48.2505C86.5833 48.2505 85.8034 49.035 85.8034 50.0026V85.6794H48.968L51.7272 83.5121C52.4854 82.9166 52.6202 81.8156 52.0279 81.0528C51.4359 80.29 50.3411 80.1542 49.5829 80.7504L42.8351 86.0506C42.4124 86.3826 42.1653 86.892 42.1653 87.4314C42.1653 87.9708 42.4124 88.4803 42.8351 88.8123L49.5829 94.1125C49.9012 94.3628 50.2788 94.4837 50.6537 94.4837C51.1717 94.4837 51.6843 94.2522 52.0279 93.81C52.6202 93.0474 52.4856 91.9463 51.7272 91.3508L48.968 89.1835H87.5453C88.5073 89.1835 89.2873 88.399 89.2873 87.4314V50.0026C89.2873 49.035 88.5073 48.2505 87.5453 48.2505ZM63.3984 102.335C63.4459 105.316 61.0588 108 58.2902 108.079L32.1529 108.824C32.051 108.827 31.9493 108.828 31.8485 108.828C29.1267 108.828 26.654 107.784 24.6797 105.798L13.3676 94.4206H11.8833L11.8706 95.8998C11.8626 96.8512 11.4852 97.7436 10.8083 98.4129C10.1389 99.0748 9.25729 99.4383 8.32318 99.4383C8.31273 99.4383 8.3025 99.4383 8.29205 99.4383L4.33654 99.4041C2.37992 99.3868 0.80194 97.7721 0.818488 95.8043L0.995077 75.1383C1.01228 73.1808 2.60092 71.6 4.54296 71.6H4.57388L8.52917 71.6342C9.47504 71.6423 10.3623 72.0218 11.0278 72.7025C11.6934 73.3834 12.0555 74.2822 12.0474 75.2336L12.0381 76.3275L21.9257 76.3153H21.9678C24.8324 76.3153 28.0722 76.6795 30.4432 79.3257C31.0001 79.9468 31.6327 80.7018 32.3025 81.5014C34.2027 83.769 36.5674 86.5913 39.2604 88.8821C39.3203 88.9329 39.3767 88.9879 39.4291 89.0466C41.354 91.194 41.3268 94.4197 39.3673 96.3908C39.3621 96.3961 39.3566 96.4013 39.3514 96.4066C39.4929 96.4149 39.6373 96.4169 39.7812 96.4184L53.9795 96.3639C54.0102 96.3639 54.0412 96.3637 54.0716 96.3637C62.6361 96.3634 63.376 100.931 63.3984 102.335ZM8.56335 75.2034C8.56357 75.1968 8.56357 75.1797 8.54332 75.1591C8.52307 75.1383 8.50587 75.1381 8.49934 75.1381L4.54405 75.1039C4.54384 75.1039 4.54362 75.1039 4.54362 75.1039C4.51226 75.1039 4.47917 75.1368 4.47895 75.1685L4.30236 95.8341C4.30192 95.8659 4.3348 95.8994 4.36616 95.8996L8.32166 95.9337C8.3295 95.9351 8.34517 95.9342 8.36586 95.9136C8.38633 95.8932 8.38654 95.8759 8.38654 95.8696L8.56335 75.2034ZM59.915 102.392C59.8901 100.832 57.6522 99.8678 54.0688 99.8678C54.0433 99.8678 54.0183 99.8678 53.9924 99.868L39.7943 99.9223C39.7808 99.9223 39.7673 99.9223 39.754 99.9223C37.4346 99.9223 35.3809 99.1656 33.4763 97.6092L32.2778 96.6249C32.2694 96.6181 32.2336 96.5877 32.2241 96.5789C30.7504 95.2651 29.4627 93.9268 28.0994 92.5098C27.4843 91.8703 26.848 91.2091 26.1939 90.5514C25.5137 89.867 25.5137 88.758 26.1939 88.0736C26.8744 87.3896 27.977 87.3896 28.6574 88.0736C29.3316 88.7518 29.9778 89.4235 30.603 90.0731C31.8992 91.4204 33.1257 92.6935 34.4757 93.9022C35.8797 94.9381 36.6494 94.1685 36.9036 93.9127C37.5411 93.2717 37.5365 92.2367 36.907 91.4691C34.0344 89.0057 31.5994 86.0996 29.6384 83.7593C28.9597 82.9494 28.3733 82.2497 27.8555 81.6718C26.6773 80.3568 24.968 79.8194 21.9612 79.8194C21.9508 79.8194 21.9405 79.8194 21.9299 79.8194L12.008 79.8316L11.9131 90.9165H14.089C14.551 90.9165 14.9939 91.1011 15.3205 91.4296L27.1433 103.321C28.5161 104.702 30.1675 105.381 32.0544 105.321L58.1915 104.576C58.9588 104.554 59.9326 103.491 59.915 102.392ZM6.95511 76.3862C6.32431 76.1339 5.60968 76.4438 5.35884 77.0783C5.10822 77.7127 5.41611 78.4315 6.04691 78.6838C6.67749 78.9361 7.39212 78.6262 7.64317 77.9918C7.89379 77.3573 7.58591 76.6385 6.95511 76.3862ZM54.4427 36.2412C59.6282 36.2412 63.8472 40.4847 63.8472 45.7004C63.8472 48.5387 62.596 51.0871 60.6213 52.8225C66.3325 55.0689 70.5536 60.3503 71.2425 66.8241C71.2952 67.3184 71.1367 67.8121 70.8062 68.1817C70.4757 68.5514 70.0047 68.7626 69.5106 68.7626L39.3747 68.7628C38.8804 68.7628 38.4095 68.5517 38.0791 68.182C37.7488 67.8123 37.5901 67.3189 37.6428 66.8243C38.3315 60.3505 42.5527 55.0689 48.2638 52.8223C46.2891 51.0871 45.0382 48.5385 45.0382 45.7002C45.0382 40.4847 49.2569 36.2412 54.4427 36.2412ZM54.4427 55.1598C48.234 55.1598 42.9553 59.3833 41.455 65.2589L67.4305 65.2587C65.9299 59.3833 60.6511 55.1598 54.4427 55.1598ZM54.4427 39.7453C51.1781 39.7453 48.522 42.4168 48.522 45.7004C48.522 48.984 51.1781 51.6554 54.4427 51.6554C57.7073 51.6554 60.3633 48.984 60.3633 45.7004C60.3633 42.4168 57.7073 39.7453 54.4427 39.7453ZM108.818 21.5973C108.818 33.3954 99.2753 42.9941 87.5453 42.9941C75.8153 42.9941 66.2724 33.3954 66.2724 21.5973C66.2724 9.79911 75.8153 0.200439 87.5453 0.200439C99.2753 0.200439 108.818 9.79911 108.818 21.5973ZM105.335 21.5973C105.335 11.7312 97.3544 3.70456 87.5453 3.70456C77.7363 3.70456 69.7562 11.731 69.7562 21.5971C69.7562 31.4631 77.7363 39.4898 87.5453 39.4898C97.3544 39.4898 105.335 31.4634 105.335 21.5973ZM87.5453 10.3179C86.5833 10.3179 85.8034 11.1024 85.8034 12.07V19.8452H81.7434C80.7814 19.8452 80.0014 20.6297 80.0014 21.5973C80.0014 22.5648 80.7814 23.3493 81.7434 23.3493H87.5453C88.5073 23.3493 89.2873 22.5648 89.2873 21.5973V12.07C89.2873 11.1024 88.5073 10.3179 87.5453 10.3179ZM87.5453 4.20434C86.5833 4.20434 85.8034 4.98882 85.8034 5.9564V7.65196C85.8034 8.61953 86.5833 9.40402 87.5453 9.40402C88.5073 9.40402 89.2873 8.61953 89.2873 7.65196V5.9564C89.2873 4.98882 88.5073 4.20434 87.5453 4.20434ZM97.3496 13.4883C97.7955 13.4883 98.2412 13.3173 98.5813 12.9752L99.7733 11.7763C100.453 11.0919 100.453 9.98286 99.7733 9.29846C99.0928 8.6145 97.9902 8.6145 97.3097 9.29846L96.1178 10.4973C95.4376 11.1817 95.4376 12.2908 96.1178 12.9752C96.4579 13.3173 96.9036 13.4883 97.3496 13.4883ZM98.5813 30.2194C97.9011 29.5352 96.7983 29.5352 96.118 30.2192C95.4376 30.9034 95.4376 32.0126 96.1178 32.6968L97.3097 33.8959C97.6498 34.238 98.0956 34.4092 98.5415 34.4092C98.9872 34.4092 99.4332 34.2382 99.7731 33.8961C100.453 33.2119 100.453 32.1026 99.7733 31.4185L98.5813 30.2194ZM76.5097 30.2194L75.3178 31.4185C74.6376 32.1026 74.6376 33.2119 75.318 33.8961C75.6581 34.2382 76.1036 34.4092 76.5496 34.4092C76.9953 34.4092 77.4414 34.2382 77.7813 33.8959L78.9733 32.6968C79.6535 32.0126 79.6535 30.9034 78.973 30.2192C78.2928 29.535 77.1899 29.535 76.5097 30.2194ZM77.7813 9.29846C77.1009 8.6145 75.9982 8.6145 75.3178 9.29846C74.6376 9.98286 74.6376 11.0919 75.3178 11.7763L76.5097 12.9752C76.8498 13.3173 77.2955 13.4883 77.7415 13.4883C78.1874 13.4883 78.6331 13.3173 78.9733 12.9752C79.6535 12.2908 79.6535 11.1817 78.9733 10.4973L77.7813 9.29846ZM103.096 19.8452H101.41C100.448 19.8452 99.6683 20.6297 99.6683 21.5973C99.6683 22.5648 100.448 23.3493 101.41 23.3493H103.096C104.058 23.3493 104.838 22.5648 104.838 21.5973C104.838 20.6297 104.058 19.8452 103.096 19.8452ZM87.5453 33.7907C86.5833 33.7907 85.8034 34.5752 85.8034 35.5428V37.2381C85.8034 38.2057 86.5833 38.9902 87.5453 38.9902C88.5073 38.9902 89.2873 38.2057 89.2873 37.2381V35.5428C89.2873 34.5752 88.5073 33.7907 87.5453 33.7907ZM75.4223 21.5973C75.4223 20.6297 74.6424 19.8452 73.6804 19.8452H71.9948C71.0329 19.8452 70.2529 20.6297 70.2529 21.5973C70.2529 22.5648 71.0329 23.3493 71.9948 23.3493H73.6804C74.6424 23.3493 75.4223 22.5648 75.4223 21.5973Z" fill="#1D243C"/>
</svg>
