<svg width="87" height="86" viewBox="0 0 87 86" fill="none" xmlns="http://www.w3.org/2000/svg">
<path d="M59.2393 24.1193C60.2109 29.0695 63.9422 33.0217 68.7551 34.2867C69.2645 34.4206 69.6815 34.7882 69.8927 35.2731L71.5928 39.1768C71.7756 39.5962 72.3671 39.5962 72.5498 39.1768L74.2499 35.2731C74.4609 34.7885 74.8771 34.4206 75.386 34.2871C81.0053 32.8108 85.1529 27.6725 85.1529 21.5578C85.1529 14.185 79.124 8.22852 71.7545 8.40387C65.8433 8.54452 60.8716 12.6946 59.4193 18.2238" stroke="#1D243C" stroke-width="3" stroke-miterlimit="10" stroke-linecap="round" stroke-linejoin="round"/>
<path d="M76.0456 23.39C76.0456 25.5979 74.2663 27.3878 72.0714 27.3878C69.8765 27.3878 68.0972 25.5979 68.0972 23.39" stroke="#1D243C" stroke-width="3" stroke-miterlimit="10" stroke-linecap="round" stroke-linejoin="round"/>
<path d="M67.8091 17.394V18.7265" stroke="#1D243C" stroke-width="3" stroke-miterlimit="10" stroke-linecap="round" stroke-linejoin="round"/>
<path d="M76.334 17.394V18.7265" stroke="#1D243C" stroke-width="3" stroke-miterlimit="10" stroke-linecap="round" stroke-linejoin="round"/>
<path d="M53.4201 25.3205V19.1149C53.4201 9.84596 45.9496 2.33203 36.7343 2.33203H33.2017C29.7606 2.33203 26.563 3.38009 23.9067 5.17553" stroke="#1D243C" stroke-width="3" stroke-miterlimit="10" stroke-linecap="round" stroke-linejoin="round"/>
<path d="M19.688 9.26972C17.6929 12.0352 16.5156 15.4364 16.5156 19.1147V25.3204" stroke="#1D243C" stroke-width="3" stroke-miterlimit="10" stroke-linecap="round" stroke-linejoin="round"/>
<path d="M23.6975 52.2389L14.0986 55.4012" stroke="#1D243C" stroke-width="3" stroke-miterlimit="10" stroke-linecap="round" stroke-linejoin="round"/>
<path d="M3.41455 72.9656V81.348C3.41455 82.799 4.58399 83.9751 6.02641 83.9751H34.1079" stroke="#1D243C" stroke-width="3" stroke-miterlimit="10" stroke-linecap="round" stroke-linejoin="round"/>
<path d="M20.5478 35.1994V24.6177H19.0749C16.2926 24.6177 14.0371 26.8862 14.0371 29.6848V31.2105C14.0371 34.0091 16.2926 36.2776 19.0749 36.2776H20.6004C20.5666 35.9226 20.5478 35.5633 20.5478 35.1994Z" stroke="#1D243C" stroke-width="3" stroke-miterlimit="10" stroke-linecap="round" stroke-linejoin="round"/>
<path d="M50.8613 24.6177H49.3885V35.1995C49.3885 35.5634 49.3698 35.9227 49.3359 36.2776H50.8613C53.6436 36.2776 55.8991 34.009 55.8991 31.2105V29.6847C55.8989 26.8863 53.6434 24.6177 50.8613 24.6177Z" stroke="#1D243C" stroke-width="3" stroke-miterlimit="10" stroke-linecap="round" stroke-linejoin="round"/>
<path d="M27.6799 45.6126L24.8357 47.6968C24.1206 48.2208 23.6978 49.057 23.6978 49.9469V62.1686C23.6978 62.8665 24.5167 63.2374 25.0362 62.775L34.1082 54.7013" stroke="#1D243C" stroke-width="3" stroke-miterlimit="10" stroke-linecap="round" stroke-linejoin="round"/>
<path d="M28.1187 45.7698V49.7963C28.1187 50.0234 28.2134 50.24 28.3797 50.3933L34.1082 55.6733V46.5162C34.1082 46.4579 34.1114 46.4005 34.1171 46.3439" stroke="#1D243C" stroke-width="3" stroke-miterlimit="10" stroke-linecap="round" stroke-linejoin="round"/>
<path d="M35.858 44.7562H44.0092C47.2318 42.8073 49.3883 39.2572 49.3883 35.1995V23.6571C49.3883 21.0946 47.3229 19.0172 44.7752 19.0172H25.161C22.6133 19.0172 20.5479 21.0946 20.5479 23.6571V35.1995C20.5479 41.3545 25.5085 46.3439 31.6277 46.3439H34.1166C34.2028 45.4527 34.9493 44.7562 35.858 44.7562Z" stroke="#1D243C" stroke-width="3" stroke-miterlimit="10" stroke-linecap="round" stroke-linejoin="round"/>
<path d="M40.3756 36.1711C40.3756 38.5862 38.4293 40.5441 36.0284 40.5441H33.9077C31.5069 40.5441 29.5605 38.5862 29.5605 36.1711" stroke="#1D243C" stroke-width="3" stroke-miterlimit="10" stroke-linecap="round" stroke-linejoin="round"/>
<path d="M27.5776 25.2023V27.9222" stroke="#1D243C" stroke-width="3" stroke-miterlimit="10" stroke-linecap="round" stroke-linejoin="round"/>
<path d="M42.3584 25.2023V27.9221" stroke="#1D243C" stroke-width="3" stroke-miterlimit="10" stroke-linecap="round" stroke-linejoin="round"/>
<path d="M34.968 27.1711C33.8231 27.1711 32.895 28.1047 32.895 29.2563C32.895 30.408 33.8231 31.3416 34.968 31.3416" stroke="#1D243C" stroke-width="3" stroke-miterlimit="10" stroke-linecap="round" stroke-linejoin="round"/>
<path d="M19.8951 77.9099C18.4455 77.9099 17.2705 79.092 17.2705 80.5502V83.9763H34.1081V77.9099H19.8951Z" stroke="#1D243C" stroke-width="3" stroke-miterlimit="10" stroke-linecap="round" stroke-linejoin="round"/>
<path d="M34.1079 71.9576V83.9755H82.528C83.9776 83.9755 85.1527 82.7935 85.1527 81.3355V46.5162C85.1527 45.5441 84.3693 44.7563 83.403 44.7563H35.8578C34.8913 44.7563 34.1081 45.5443 34.1081 46.5162V66.062" stroke="#1D243C" stroke-width="3" stroke-miterlimit="10" stroke-linecap="round" stroke-linejoin="round"/>
<path d="M64.2388 67.3971H55.0224C53.3582 67.3971 52.0093 66.0402 52.0093 64.3661C52.0093 62.6921 53.3582 61.3351 55.0224 61.3351H64.2388C65.9029 61.3351 67.2519 62.6921 67.2519 64.3661C67.2517 66.0402 65.9027 67.3971 64.2388 67.3971Z" stroke="#1D243C" stroke-width="3" stroke-miterlimit="10" stroke-linecap="round" stroke-linejoin="round"/>
<path d="M6.5015 53.229H10.1041V47.9147C10.1041 45.4646 8.12931 43.4784 5.69346 43.4784C4.58246 43.4784 3.68164 44.3843 3.68164 45.5019V54.2066C4.4592 53.5948 5.43756 53.229 6.5015 53.229Z" stroke="#1D243C" stroke-width="3" stroke-miterlimit="10" stroke-linecap="round" stroke-linejoin="round"/>
<path d="M14.1543 61.1085C14.1543 59.8789 13.3358 58.8433 12.2175 58.518C13.3499 58.1886 14.1749 57.1309 14.1539 55.8809C14.129 54.3937 12.8609 53.2291 11.3821 53.2291H6.50172C3.97158 53.2291 1.92041 55.2922 1.92041 57.837V69.5612C1.92041 72.106 3.97158 74.1691 6.50172 74.1691H11.382C12.8607 74.1691 14.1288 73.0044 14.1538 71.5173C14.1747 70.2673 13.3497 69.2097 12.2173 68.8802C13.3357 68.5548 14.1541 67.5193 14.1541 66.2897C14.1541 65.0601 13.3357 64.0245 12.2173 63.6992C13.3358 63.3736 14.1543 62.338 14.1543 61.1085Z" stroke="#1D243C" stroke-width="3" stroke-miterlimit="10" stroke-linecap="round" stroke-linejoin="round"/>
</svg>
