<svg width="47" height="82" viewBox="0 0 47 82" fill="none" xmlns="http://www.w3.org/2000/svg">
<path d="M45.9403 30.1985C45.6007 29.9423 45.1876 29.8039 44.763 29.8039H29.7326L44.6061 3.71283C45.148 2.76884 44.8265 1.56192 43.8879 1.01684C43.593 0.845694 43.259 0.754477 42.9187 0.752441H22.0409C21.2817 0.758177 20.5937 1.20409 20.2749 1.89719L0.339136 43.9347C-0.115969 44.9239 0.312279 46.0969 1.2957 46.5547C1.54956 46.6729 1.82549 46.7351 2.10511 46.7371H17.0962L6.30406 79.4988C6.11532 80.4138 6.59048 81.3363 7.44219 81.7093C8.29004 82.1563 9.33472 81.9228 9.91455 81.1567L46.3327 32.9615C46.983 32.0895 46.8073 30.8524 45.9403 30.1985ZM13.9174 69.4729L21.8446 45.2371C22.1913 44.2045 21.6402 43.0845 20.6136 42.7358C20.4158 42.6686 20.2089 42.6336 20.0001 42.632H5.36221L23.2574 4.50215H39.5828L24.6701 30.7904C24.1282 31.7344 24.4498 32.9413 25.3883 33.4864C25.6832 33.6576 26.0172 33.7488 26.3576 33.7508H40.8385L13.9174 69.4729Z" fill="#1D243C"/>
</svg>
