<svg width="109" height="110" viewBox="0 0 109 110" fill="none" xmlns="http://www.w3.org/2000/svg">
<path d="M47.4619 81.7625C46.2152 81.7625 45.2041 80.748 45.2041 79.4923C45.2041 75.7363 48.2423 72.6804 51.9767 72.6804H72.2945C74.7846 72.6804 76.8093 70.6431 76.8093 68.1385C76.8093 65.6339 74.7846 63.5974 72.2945 63.5974H51.9767C51.7353 63.5974 51.4939 63.5567 51.2632 63.4794L44.8387 61.3265H33.9167C30.2046 61.3265 26.6745 62.7393 24.2248 65.2031L21.967 67.4733C21.0849 68.3613 19.658 68.3613 18.775 67.4733C17.8921 66.586 17.8921 65.1508 18.775 64.2627L21.0328 61.9917C24.3216 58.6839 29.0174 56.7855 33.9167 56.7855H45.2041C45.4455 56.7855 45.6869 56.8262 45.9175 56.9035L52.3421 59.0564H72.2945C77.2748 59.0564 81.3249 63.1293 81.3249 68.1385C81.3249 73.1477 77.2748 77.2214 72.2945 77.2214H51.9767C50.7324 77.2214 49.7189 78.2384 49.7189 79.4923C49.7189 80.748 48.7078 81.7625 47.4619 81.7625Z" fill="white"/>
<path d="M35.5123 94.721L32.3203 91.5104L36.8351 86.9693C37.2576 86.5419 37.833 86.3041 38.4315 86.3041H69.2315L93.1539 66.6174L103.16 50.5163C102.632 50.2053 102.076 49.9733 101.643 49.9733C99.6422 49.9733 98.0623 49.9733 94.2089 53.8491L89.6932 58.391C89.5626 58.5223 89.4179 58.6354 89.26 58.7311L77.9726 65.543L75.6495 61.6489L86.6996 54.98L91.0185 50.636C95.8111 45.8156 98.5542 45.4322 101.643 45.4322C104.746 45.4322 107.456 48.0682 107.754 48.3676C108.496 49.1151 108.63 50.2801 108.072 51.1765L96.7841 69.3423C96.6535 69.5511 96.4906 69.739 96.2988 69.8962L71.4662 90.3321C71.0619 90.6639 70.556 90.8452 70.0368 90.8452H39.3666L35.5123 94.721Z" fill="white"/>
<path d="M29.401 109.01C28.8231 109.01 28.2452 108.788 27.8054 108.345C26.9224 107.458 26.9224 106.023 27.8054 105.135L35.2394 97.6574L11.341 73.6201L3.90697 81.0973C3.02402 81.9854 1.59708 81.9854 0.714949 81.0973C-0.168004 80.21 -0.168004 78.7748 0.714949 77.8867L9.74455 68.8038C10.6275 67.9165 12.0544 67.9165 12.9374 68.8038L40.0278 96.0517C40.91 96.9398 40.91 98.375 40.0278 99.2631L30.9974 108.345C30.5568 108.788 29.9789 109.01 29.401 109.01Z" fill="white"/>
<path d="M81.3226 52.2443C80.9365 52.2443 80.5463 52.1462 80.1892 51.935C79.1103 51.3038 78.7465 49.9118 79.374 48.8292C82.1262 44.0761 83.5821 38.9762 83.5821 34.0785C83.5821 17.8027 70.4163 4.56043 54.2346 4.56043C38.0521 4.56043 24.8864 17.8027 24.8864 34.0785C24.8864 38.9762 26.3423 44.0761 29.0945 48.8308C29.722 49.9143 29.3565 51.3038 28.2793 51.9375C27.2004 52.5661 25.8214 52.2036 25.1914 51.1176C22.0399 45.6701 20.3716 39.7778 20.3716 34.0785C20.3716 15.2981 35.562 0.0185547 54.2346 0.0185547C72.9064 0.0185547 88.0977 15.2981 88.0977 34.0785C88.0977 39.7778 86.431 45.6701 83.2754 51.1159C82.8579 51.8402 82.0989 52.2443 81.3226 52.2443Z" fill="white"/>
<path d="M58.7493 49.9734H49.7189C45.9854 49.9734 42.9463 46.9174 42.9463 43.1614C42.9463 41.9082 43.9582 40.8904 45.2041 40.8904C46.45 40.8904 47.4619 41.9082 47.4619 43.1614C47.4619 44.4128 48.4755 45.4323 49.7189 45.4323H58.7493C59.9952 45.4323 61.0071 44.4128 61.0071 43.1614V38.6203C61.0071 37.3689 59.9952 36.3494 58.7493 36.3494H49.7189C45.9854 36.3494 42.9463 33.2935 42.9463 29.5374V24.9964C42.9463 21.2403 45.9854 18.1844 49.7189 18.1844H58.7493C62.4837 18.1844 65.5219 21.2403 65.5219 24.9964C65.5219 26.2495 64.5125 27.2665 63.2641 27.2665C62.0158 27.2665 61.0071 26.2495 61.0071 24.9964C61.0071 23.7449 59.9952 22.7254 58.7493 22.7254H49.7189C48.4755 22.7254 47.4619 23.7449 47.4619 24.9964V29.5374C47.4619 30.7889 48.4755 31.8084 49.7189 31.8084H58.7493C62.4837 31.8084 65.5219 34.8643 65.5219 38.6203V43.1614C65.5219 46.9174 62.4837 49.9734 58.7493 49.9734Z" fill="white"/>
<path d="M54.2344 54.5146C52.9877 54.5146 51.9766 53.4976 51.9766 52.2445V15.9136C51.9766 14.6605 52.9877 13.6427 54.2344 13.6427C55.4803 13.6427 56.4914 14.6605 56.4914 15.9136V52.2445C56.4914 53.4976 55.4803 54.5146 54.2344 54.5146Z" fill="white"/>
<path d="M72.2944 31.8085H76.8092V36.3501H72.2944V31.8085Z" fill="white"/>
<path d="M31.6587 31.8085H36.1735V36.3501H31.6587V31.8085Z" fill="white"/>
</svg>
