<svg width="109" height="110" viewBox="0 0 109 110" fill="none" xmlns="http://www.w3.org/2000/svg">
<path d="M54.4597 13.9888C55.6412 13.9888 56.599 13.0254 56.599 11.837V2.23968C56.599 1.05129 55.6412 0.0878906 54.4597 0.0878906C53.2781 0.0878906 52.3203 1.05129 52.3203 2.23968V11.837C52.3205 13.0254 53.2784 13.9888 54.4597 13.9888Z" fill="#1D243C"/>
<path d="M106.754 74.0121L102.974 70.2215C101.63 68.8709 99.8381 68.127 97.9288 68.127C96.708 68.127 95.5361 68.4325 94.4975 69.0049L87.3757 61.8502L87.7225 61.5017C90.6118 58.5899 90.6107 53.8584 87.7223 50.9564C86.6901 49.9163 85.4022 49.2228 83.9983 48.9309C84.1916 48.2598 84.2933 47.5568 84.2933 46.8374C84.2933 44.8386 83.5214 42.9644 82.124 41.5647C81.0916 40.5246 79.8039 39.831 78.4 39.5392C78.5933 38.868 78.695 38.1653 78.695 37.4457C78.695 35.4467 77.9231 33.5726 76.5234 32.1708C75.4663 31.1089 74.1669 30.4367 72.8025 30.1506C73.5324 27.6194 72.9087 24.7715 70.9289 22.7767C69.2809 21.1262 67.0446 20.4168 64.8896 20.6467L50.777 17.9599C48.6246 17.5492 45.9368 17.2777 44.2401 18.8342C44.1331 18.9325 44.0239 19.0455 43.9164 19.1714C41.2857 18.2069 38.2174 18.7812 36.1108 20.8978C34.7132 22.3017 33.9434 24.1751 33.9434 26.1729C33.9434 26.8925 34.0447 27.5952 34.2378 28.2665C32.8353 28.5582 31.5491 29.2509 30.5203 30.2876C29.12 31.6903 28.3478 33.5615 28.3463 35.5569C28.3457 36.2782 28.4474 36.9833 28.6416 37.6564C27.2385 37.9474 25.9514 38.6388 24.9194 39.6755C23.5191 41.0824 22.748 42.9569 22.748 44.9536C22.748 46.483 23.202 47.9399 24.0432 49.1706C22.981 49.5328 22.0081 50.1355 21.1935 50.9541C18.3023 53.8584 18.3013 58.5901 21.1954 61.5062L21.541 61.8523L14.4183 69.0034C11.7713 67.7498 8.50986 68.2195 6.32547 70.4138L2.54383 74.2067C1.19874 75.5579 0.45822 77.3604 0.458008 79.2818C0.458008 81.2035 1.19874 83.0062 2.54383 84.3576L7.26333 89.0988C8.09923 89.9387 9.45388 89.9378 10.2887 89.0971C11.1238 88.2563 11.1229 86.8938 10.287 86.0541L5.56752 81.3129C5.03178 80.7747 4.73672 80.0534 4.73672 79.2821C4.73672 78.5109 5.03178 77.7898 5.56625 77.2529L9.34809 73.4598C10.293 72.5105 11.7392 72.369 12.8374 73.0294C12.9148 73.1463 13.0042 73.2574 13.1066 73.3606C13.2899 73.5454 13.4991 73.6871 13.7213 73.7907L35.4087 95.5721C35.5117 95.7979 35.6532 96.0105 35.8378 96.1964C36.0175 96.3774 36.2225 96.5173 36.44 96.6203C36.8987 97.1419 37.1521 97.8081 37.1521 98.5187C37.1521 99.29 36.857 100.011 36.3213 100.549L32.5433 104.345C31.427 105.463 29.6111 105.463 28.4982 104.348L23.7787 99.6009C22.9432 98.7606 21.5888 98.7606 20.7533 99.6009C19.9178 100.441 19.9178 101.804 20.7533 102.644L25.4762 107.395C26.8663 108.787 28.6919 109.483 30.5184 109.483C32.3453 109.483 34.173 108.786 35.5648 107.392L39.3452 103.594C40.6903 102.243 41.431 100.441 41.431 98.5187C41.431 97.1472 41.0518 95.8375 40.3468 94.708L48.3629 86.6551C48.3714 86.6463 48.3799 86.6376 48.3886 86.6288C49.3065 85.6744 51.8627 85.853 54.3347 86.0257C56.091 86.1485 58.0492 86.285 59.9623 86.0633L68.7407 94.8822C68.172 95.9251 67.8684 97.1023 67.8684 98.3283C67.8684 100.248 68.6092 102.049 69.9543 103.401L73.7348 107.199C75.0791 108.549 76.8709 109.293 78.7802 109.293C80.6893 109.293 82.4811 108.55 83.8256 107.199L106.755 84.1638C108.1 82.8126 108.841 81.0101 108.841 79.0885C108.841 77.167 108.1 75.3645 106.754 74.0121ZM49.9804 22.1883L59.2607 23.9551L53.7059 29.54C52.8466 29.1246 51.6689 28.3499 50.377 27.1068C48.6085 25.4052 47.3435 23.4406 47.2284 22.2152C47.2281 22.2146 47.2281 22.2139 47.2281 22.2133L47.2279 22.2126C47.2197 22.1246 47.2175 22.0543 47.2186 22.0007C47.4984 21.9323 48.2414 21.8565 49.9804 22.1883ZM39.1342 23.9427C40.218 22.8536 41.9017 22.728 43.1264 23.5621C43.8204 26.4889 46.3026 29.1415 47.4193 30.2162C48.247 31.0127 50.9025 33.4009 53.5829 34.0572C53.9455 34.5801 54.1429 35.2033 54.1429 35.861C54.1429 36.7081 53.8189 37.5002 53.2286 38.0933C52.64 38.6864 51.8512 39.0129 51.0074 39.0129C50.1635 39.0129 49.3747 38.6864 48.7833 38.0905L48.7831 38.0903L48.7821 38.0892L39.134 28.4027C38.5458 27.8119 38.2219 27.0198 38.2219 26.1729C38.2221 25.3257 38.546 24.5337 39.1342 23.9427ZM33.544 33.3325C34.1326 32.7396 34.9205 32.4129 35.763 32.4129C36.6066 32.4129 37.397 32.7402 37.9895 33.3355L45.7584 41.1339C46.9817 42.3663 46.9817 44.3718 45.7626 45.5999C45.1708 46.1928 44.3793 46.5193 43.534 46.5193C42.6888 46.5193 41.8973 46.1928 41.308 45.6025L41.3078 45.6023L35.414 39.6755C35.4049 39.6663 35.3949 39.6577 35.3855 39.6483L33.5417 37.7946C32.9501 37.2002 32.6244 36.4067 32.625 35.5601C32.6259 34.7164 32.9505 33.9269 33.544 33.3325ZM27.9431 42.7204C28.5322 42.1287 29.3218 41.8029 30.1668 41.8029C31.0049 41.8029 31.7877 42.124 32.3742 42.7054L38.286 48.6489C38.8755 49.2394 39.2003 50.0306 39.2003 50.8767C39.2003 51.7226 38.8755 52.5138 38.2837 53.1067C37.6948 53.6981 36.9061 54.024 36.0625 54.024C35.2177 54.024 34.4264 53.6973 33.8367 53.1067L31.6935 50.9536C31.6931 50.953 31.6925 50.9526 31.6921 50.9521L27.9434 47.1861C27.3524 46.5924 27.0269 45.7992 27.0269 44.9531C27.0269 44.1073 27.3524 43.3139 27.9431 42.7204ZM24.2172 53.9988C24.8088 53.4043 25.5994 53.077 26.4434 53.077C27.2872 53.077 28.0776 53.4041 28.669 53.9981L30.8152 56.1542C31.4049 56.7447 31.7294 57.5359 31.7294 58.382C31.7294 59.2281 31.4046 60.0191 30.8107 60.6144C30.2221 61.2073 29.4333 61.534 28.5896 61.534C27.7456 61.534 26.9568 61.2075 26.364 60.6101L26.0952 60.3409C26.0916 60.3373 26.0889 60.3334 26.0855 60.33C26.0814 60.3261 26.0772 60.3227 26.0731 60.3189L24.2193 58.4615C22.9959 57.2285 22.9949 55.2267 24.2172 53.9988ZM67.8145 78.4541C66.9794 77.6131 65.6248 77.6125 64.7891 78.4522L62.8857 80.3643C61.0771 82.1834 57.8 81.9543 54.6308 81.7332C51.1893 81.4926 47.6305 81.2443 45.3276 83.6224L37.4476 91.5386L17.7422 71.7477L24.7157 64.7462C25.8684 65.4568 27.1984 65.8378 28.59 65.8378C30.5781 65.8378 32.4424 65.0626 33.8348 63.6595C35.2366 62.2553 36.0088 60.3813 36.0088 58.3822C36.0088 58.3637 36.0075 58.3453 36.0075 58.3267C36.026 58.3269 36.0445 58.328 36.063 58.328C38.0483 58.328 39.9111 57.5552 41.3055 56.1544C42.7073 54.7502 43.4794 52.876 43.4794 50.8771C43.4794 50.8586 43.4782 50.8402 43.4782 50.8216C43.4969 50.8216 43.5156 50.8229 43.5345 50.8229C45.5192 50.8229 47.383 50.0509 48.7867 48.6448C50.244 47.1767 50.9647 45.2439 50.9509 43.3152C50.9701 43.3154 50.9892 43.3165 51.0083 43.3165C52.9964 43.3163 54.8605 42.5413 56.255 41.1361C57.6526 39.7321 58.4224 37.8587 58.4224 35.861C58.4224 34.4638 58.0447 33.1282 57.3405 31.9712L63.4527 25.8261C63.9082 25.3699 64.4698 25.0836 65.0585 24.9655C65.1222 24.9586 65.1851 24.9484 65.2473 24.936C66.1918 24.805 67.1836 25.0982 67.9058 25.8216C69.1292 27.0542 69.1292 29.0597 67.9103 30.2878L66.0488 32.1524C66.0426 32.1586 66.036 32.1642 66.0299 32.1704L63.8859 34.3232C63.0497 35.1629 63.0489 36.5254 63.8839 37.3662C64.7192 38.2072 66.0736 38.2078 66.9093 37.3681L68.7783 35.4909C68.7787 35.4905 68.7791 35.49 68.7795 35.4896L69.0621 35.2065C70.2888 33.9839 72.2763 33.9865 73.5018 35.2174C74.0915 35.808 74.4163 36.5992 74.4163 37.4453C74.4163 38.2912 74.0915 39.0823 73.4971 39.6776L71.625 41.5645C71.625 41.5645 71.6246 41.5649 71.6244 41.5653L69.4806 43.7128C68.6434 44.5515 68.6406 45.914 69.4744 46.7558C70.3082 47.5979 71.6626 47.6004 72.4998 46.762L74.6534 44.6047C75.242 44.0115 76.0308 43.6851 76.8745 43.6851C77.7185 43.6851 78.5074 44.0115 79.1003 44.6089C79.69 45.1997 80.0146 45.9909 80.0146 46.837C80.0146 47.6829 79.69 48.4741 79.0969 49.0681L75.3646 52.8236C74.5293 53.6642 74.5295 55.0265 75.365 55.8666C75.7829 56.2866 76.3301 56.4965 76.8775 56.4965C77.4251 56.4965 77.9728 56.2862 78.3904 55.8659L80.2196 54.0255C80.23 54.0154 80.2413 54.0067 80.2517 53.9962C80.8403 53.4031 81.6291 53.0766 82.4728 53.0766C83.3168 53.0766 84.1055 53.4031 84.6963 53.9983C85.9184 55.2262 85.9173 57.2283 84.6963 58.4585L82.8365 60.327C82.8359 60.3276 82.835 60.3283 82.8344 60.3289C82.8337 60.3296 82.8331 60.3304 82.8325 60.3311L79.8806 63.2965C79.0447 64.1364 79.0438 65.4989 79.8787 66.3397C80.2965 66.7604 80.8446 66.9708 81.3924 66.9708C81.9394 66.9708 82.4866 66.761 82.9043 66.3416L84.3481 64.891L91.2684 71.8434L71.5647 91.6375L64.5049 84.5452C64.9971 84.2268 65.468 83.8525 65.9101 83.4079L67.8124 81.4969C68.6487 80.6574 68.6495 79.2949 67.8145 78.4541ZM103.731 81.1189L80.8017 104.154C80.2653 104.693 79.5473 104.989 78.78 104.989C78.0127 104.989 77.2947 104.693 76.7581 104.154L72.9775 100.356C72.4418 99.8178 72.1467 99.0977 72.1467 98.3283C72.1467 97.5592 72.4418 96.8391 72.9775 96.3009L95.9072 73.266C96.4438 72.7269 97.1615 72.4301 97.929 72.4301C98.6963 72.4301 99.4143 72.7269 99.9522 73.2672L103.732 77.0578C104.267 77.596 104.562 78.3169 104.562 79.0883C104.562 79.8598 104.267 80.5809 103.731 81.1189Z" fill="#1D243C"/>
<path d="M26.0522 12.1749C26.4698 12.5941 27.0166 12.8035 27.5634 12.8035C28.1114 12.8035 28.6597 12.5928 29.0776 12.1717C29.9122 11.3305 29.9109 9.96817 29.0746 9.12869L21.2789 1.3033C20.4428 0.463826 19.0882 0.464894 18.2535 1.3063C17.4189 2.14748 17.4202 3.5098 18.2565 4.34927L26.0522 12.1749Z" fill="#1D243C"/>
<path d="M81.3561 12.8034C81.9031 12.8034 82.4503 12.5936 82.8679 12.1741L90.6577 4.34855C91.4936 3.50886 91.4944 2.14634 90.6594 1.30557C89.8245 0.464813 88.4701 0.463959 87.634 1.30387L79.8443 9.12946C79.0084 9.96915 79.0075 11.3317 79.8426 12.1724C80.2604 12.5931 80.8082 12.8034 81.3561 12.8034Z" fill="#1D243C"/>
<path d="M13.6128 92.6473C12.7845 93.4948 12.796 94.8575 13.6387 95.6907L13.6448 95.6966C14.0605 96.1078 14.6003 96.3125 15.1399 96.3125C15.6937 96.3125 16.2475 96.0969 16.667 95.6676C17.4953 94.8201 17.4806 93.4544 16.6381 92.6212C15.7959 91.7881 14.4414 91.7998 13.6128 92.6473Z" fill="#1D243C"/>
<path d="M73.0471 75.3543C73.3726 75.3543 73.7027 75.2797 74.0126 75.1227C75.0675 74.5874 75.4913 73.2933 74.9594 72.2321C74.4273 71.1709 73.1406 70.7444 72.0859 71.2797L72.074 71.2857C71.0191 71.821 70.6012 73.1121 71.1332 74.1732C71.5087 74.9229 72.2641 75.3543 73.0471 75.3543Z" fill="#1D243C"/>
</svg>
