<svg width="48" height="47" viewBox="0 0 48 47" fill="none" xmlns="http://www.w3.org/2000/svg">
<path d="M0.619141 23.3521C0.619141 36.2466 11.0722 46.6997 23.9668 46.6997C36.8614 46.6997 47.3145 36.2466 47.3145 23.3521C47.3145 10.4575 36.8614 0.00439453 23.9668 0.00439453C11.0722 0.00439453 0.619141 10.4575 0.619141 23.3521ZM44.396 23.3521C44.396 34.6348 35.2495 43.7812 23.9668 43.7812C12.684 43.7812 3.5376 34.6348 3.5376 23.3521C3.5376 12.0693 12.684 2.92285 23.9668 2.92285C35.2495 2.92285 44.396 12.0693 44.396 23.3521Z" fill="#29ABE2"/>
<path d="M26.8857 23.3521C26.8857 21.7402 25.5791 20.4336 23.9673 20.4336C22.3555 20.4336 21.0488 21.7402 21.0488 23.3521C21.0488 24.9639 22.3555 26.2705 23.9673 26.2705C25.5791 26.2705 26.8857 24.9639 26.8857 23.3521Z" fill="#29ABE2"/>
<path d="M26.8857 13.1377C26.8857 11.5259 25.5791 10.2192 23.9673 10.2192C22.3555 10.2192 21.0488 11.5259 21.0488 13.1377C21.0488 14.7495 22.3555 16.0562 23.9673 16.0562C25.5791 16.0562 26.8857 14.7495 26.8857 13.1377Z" fill="#29ABE2"/>
<path d="M26.8857 33.5664C26.8857 31.9546 25.5791 30.6479 23.9673 30.6479C22.3555 30.6479 21.0488 31.9546 21.0488 33.5664C21.0488 35.1782 22.3555 36.4849 23.9673 36.4849C25.5791 36.4849 26.8857 35.1782 26.8857 33.5664Z" fill="#29ABE2"/>
</svg>
